<mxfile host="app.diagrams.net" modified="2023-01-25T07:20:34.553Z" agent="5.0 (Windows NT 6.1) AppleWebKit/537.36 (KHTML, like Gecko) Chrome/109.0.0.0 Safari/537.36" etag="0JaR0IPfazsGNCxYq29U" version="20.8.11" type="github">
  <diagram id="piDafpqhtRUU5qUU-vj8" name="Page-1">
    <mxGraphModel dx="1114" dy="1653" grid="1" gridSize="10" guides="1" tooltips="1" connect="1" arrows="1" fold="1" page="1" pageScale="1" pageWidth="827" pageHeight="1169" math="0" shadow="0">
      <root>
        <mxCell id="0" />
        <mxCell id="1" parent="0" />
        <mxCell id="EjGpoYKBLRo_IHoawIGJ-24" value="&lt;b&gt;FRONT END&lt;/b&gt;" style="rounded=0;whiteSpace=wrap;html=1;labelBackgroundColor=#FFCCE6;sketch=0;fontFamily=Times New Roman;fontSize=15;fillColor=#FFCCE6;gradientColor=none;" vertex="1" parent="1">
          <mxGeometry x="110" y="-400" width="190" height="30" as="geometry" />
        </mxCell>
        <mxCell id="EjGpoYKBLRo_IHoawIGJ-28" value="" style="endArrow=none;html=1;rounded=0;fontFamily=Times New Roman;fontSize=15;" edge="1" parent="1">
          <mxGeometry width="50" height="50" relative="1" as="geometry">
            <mxPoint x="110" y="-250" as="sourcePoint" />
            <mxPoint x="110" y="-370" as="targetPoint" />
          </mxGeometry>
        </mxCell>
        <mxCell id="EjGpoYKBLRo_IHoawIGJ-29" value="" style="endArrow=none;html=1;rounded=0;fontFamily=Times New Roman;fontSize=15;" edge="1" parent="1">
          <mxGeometry width="50" height="50" relative="1" as="geometry">
            <mxPoint x="110" y="-340" as="sourcePoint" />
            <mxPoint x="140" y="-340" as="targetPoint" />
          </mxGeometry>
        </mxCell>
        <mxCell id="EjGpoYKBLRo_IHoawIGJ-30" value="" style="endArrow=none;html=1;rounded=0;fontFamily=Times New Roman;fontSize=15;" edge="1" parent="1">
          <mxGeometry width="50" height="50" relative="1" as="geometry">
            <mxPoint x="110" y="-310" as="sourcePoint" />
            <mxPoint x="140" y="-310" as="targetPoint" />
          </mxGeometry>
        </mxCell>
        <mxCell id="EjGpoYKBLRo_IHoawIGJ-31" value="" style="endArrow=none;html=1;rounded=0;fontFamily=Times New Roman;fontSize=15;" edge="1" parent="1">
          <mxGeometry width="50" height="50" relative="1" as="geometry">
            <mxPoint x="110" y="-250" as="sourcePoint" />
            <mxPoint x="140" y="-250" as="targetPoint" />
          </mxGeometry>
        </mxCell>
        <mxCell id="EjGpoYKBLRo_IHoawIGJ-34" value="&lt;font style=&quot;font-size: 13px;&quot;&gt;LOGIN&lt;/font&gt;" style="text;html=1;align=center;verticalAlign=middle;resizable=0;points=[];autosize=1;strokeColor=none;fillColor=none;fontSize=14;fontFamily=Times New Roman;" vertex="1" parent="1">
          <mxGeometry x="140" y="-355" width="60" height="30" as="geometry" />
        </mxCell>
        <mxCell id="EjGpoYKBLRo_IHoawIGJ-38" value="HEADER" style="text;html=1;align=left;verticalAlign=middle;resizable=0;points=[];autosize=1;strokeColor=none;fillColor=none;fontSize=13;fontFamily=Times New Roman;" vertex="1" parent="1">
          <mxGeometry x="145" y="-325" width="80" height="30" as="geometry" />
        </mxCell>
        <mxCell id="EjGpoYKBLRo_IHoawIGJ-39" value="ACERCA DE..." style="text;html=1;align=left;verticalAlign=middle;resizable=0;points=[];autosize=1;strokeColor=none;fillColor=none;fontSize=13;fontFamily=Times New Roman;" vertex="1" parent="1">
          <mxGeometry x="145" y="-295" width="110" height="30" as="geometry" />
        </mxCell>
        <mxCell id="EjGpoYKBLRo_IHoawIGJ-41" value="EXPERIENCIA" style="text;html=1;align=left;verticalAlign=middle;resizable=0;points=[];autosize=1;strokeColor=none;fillColor=none;fontSize=13;fontFamily=Times New Roman;" vertex="1" parent="1">
          <mxGeometry x="145" y="-265" width="110" height="30" as="geometry" />
        </mxCell>
        <mxCell id="EjGpoYKBLRo_IHoawIGJ-42" value="" style="endArrow=none;html=1;rounded=0;fontFamily=Times New Roman;fontSize=13;" edge="1" parent="1">
          <mxGeometry width="50" height="50" relative="1" as="geometry">
            <mxPoint x="110" y="-160" as="sourcePoint" />
            <mxPoint x="110" y="-250" as="targetPoint" />
          </mxGeometry>
        </mxCell>
        <mxCell id="EjGpoYKBLRo_IHoawIGJ-45" value="" style="endArrow=none;html=1;rounded=0;fontFamily=Times New Roman;fontSize=13;" edge="1" parent="1">
          <mxGeometry width="50" height="50" relative="1" as="geometry">
            <mxPoint x="140" y="-220" as="sourcePoint" />
            <mxPoint x="140" y="-220" as="targetPoint" />
            <Array as="points">
              <mxPoint x="110" y="-220" />
            </Array>
          </mxGeometry>
        </mxCell>
        <mxCell id="EjGpoYKBLRo_IHoawIGJ-47" value="" style="endArrow=none;html=1;rounded=0;fontFamily=Times New Roman;fontSize=13;" edge="1" parent="1">
          <mxGeometry width="50" height="50" relative="1" as="geometry">
            <mxPoint x="140" y="-160" as="sourcePoint" />
            <mxPoint x="140" y="-160" as="targetPoint" />
            <Array as="points">
              <mxPoint x="110" y="-160" />
            </Array>
          </mxGeometry>
        </mxCell>
        <mxCell id="EjGpoYKBLRo_IHoawIGJ-48" value="HARD &amp;amp; SOFT SKILLS" style="text;html=1;align=left;verticalAlign=middle;resizable=0;points=[];autosize=1;strokeColor=none;fillColor=none;fontSize=13;fontFamily=Times New Roman;" vertex="1" parent="1">
          <mxGeometry x="145" y="-210" width="160" height="30" as="geometry" />
        </mxCell>
        <mxCell id="EjGpoYKBLRo_IHoawIGJ-52" value="EDUCACIÃ“N" style="text;html=1;align=left;verticalAlign=middle;resizable=0;points=[];autosize=1;strokeColor=none;fillColor=none;fontSize=13;fontFamily=Times New Roman;" vertex="1" parent="1">
          <mxGeometry x="145" y="-235" width="100" height="30" as="geometry" />
        </mxCell>
        <mxCell id="EjGpoYKBLRo_IHoawIGJ-53" value="PROYECTOS" style="text;html=1;align=left;verticalAlign=middle;resizable=0;points=[];autosize=1;strokeColor=none;fillColor=none;fontSize=13;fontFamily=Times New Roman;" vertex="1" parent="1">
          <mxGeometry x="145" y="-180" width="100" height="30" as="geometry" />
        </mxCell>
        <mxCell id="EjGpoYKBLRo_IHoawIGJ-55" value="" style="endArrow=none;html=1;rounded=0;fontFamily=Times New Roman;fontSize=15;" edge="1" parent="1">
          <mxGeometry width="50" height="50" relative="1" as="geometry">
            <mxPoint x="110" y="-280.5" as="sourcePoint" />
            <mxPoint x="140" y="-280.5" as="targetPoint" />
          </mxGeometry>
        </mxCell>
        <mxCell id="EjGpoYKBLRo_IHoawIGJ-56" value="" style="endArrow=none;html=1;rounded=0;fontFamily=Times New Roman;fontSize=15;" edge="1" parent="1">
          <mxGeometry width="50" height="50" relative="1" as="geometry">
            <mxPoint x="110" y="-195.5" as="sourcePoint" />
            <mxPoint x="140" y="-195.5" as="targetPoint" />
          </mxGeometry>
        </mxCell>
        <mxCell id="EjGpoYKBLRo_IHoawIGJ-57" value="&lt;b&gt;BACK END&lt;/b&gt;" style="rounded=0;whiteSpace=wrap;html=1;labelBackgroundColor=#FFCCE6;sketch=0;fontFamily=Times New Roman;fontSize=15;fillColor=#FFCCE6;gradientColor=none;" vertex="1" parent="1">
          <mxGeometry x="390" y="-460" width="190" height="30" as="geometry" />
        </mxCell>
        <mxCell id="EjGpoYKBLRo_IHoawIGJ-58" value="&lt;b&gt;BACK END&lt;/b&gt;" style="rounded=0;whiteSpace=wrap;html=1;labelBackgroundColor=#FFCCE6;sketch=0;fontFamily=Times New Roman;fontSize=15;fillColor=#FFCCE6;gradientColor=none;" vertex="1" parent="1">
          <mxGeometry x="390" y="-277.5" width="190" height="30" as="geometry" />
        </mxCell>
        <mxCell id="EjGpoYKBLRo_IHoawIGJ-59" value="&lt;b&gt;BACK END&lt;/b&gt;" style="rounded=0;whiteSpace=wrap;html=1;labelBackgroundColor=#FFCCE6;sketch=0;fontFamily=Times New Roman;fontSize=15;fillColor=#FFCCE6;gradientColor=none;" vertex="1" parent="1">
          <mxGeometry x="390" y="-382.5" width="190" height="30" as="geometry" />
        </mxCell>
        <mxCell id="EjGpoYKBLRo_IHoawIGJ-60" value="" style="endArrow=none;html=1;rounded=0;fontFamily=Times New Roman;fontSize=13;entryX=0;entryY=1;entryDx=0;entryDy=0;" edge="1" parent="1" target="EjGpoYKBLRo_IHoawIGJ-57">
          <mxGeometry width="50" height="50" relative="1" as="geometry">
            <mxPoint x="410" y="-400" as="sourcePoint" />
            <mxPoint x="430" y="-415" as="targetPoint" />
            <Array as="points">
              <mxPoint x="390" y="-400" />
            </Array>
          </mxGeometry>
        </mxCell>
        <mxCell id="EjGpoYKBLRo_IHoawIGJ-61" value="LOGIN" style="text;html=1;align=center;verticalAlign=middle;resizable=0;points=[];autosize=1;strokeColor=none;fillColor=none;fontSize=13;fontFamily=Times New Roman;" vertex="1" parent="1">
          <mxGeometry x="414" y="-420" width="60" height="30" as="geometry" />
        </mxCell>
        <mxCell id="EjGpoYKBLRo_IHoawIGJ-62" value="" style="endArrow=none;html=1;rounded=0;fontFamily=Times New Roman;fontSize=13;" edge="1" parent="1">
          <mxGeometry width="50" height="50" relative="1" as="geometry">
            <mxPoint x="410" y="-290" as="sourcePoint" />
            <mxPoint x="390" y="-357.5" as="targetPoint" />
            <Array as="points">
              <mxPoint x="390" y="-290" />
            </Array>
          </mxGeometry>
        </mxCell>
        <mxCell id="EjGpoYKBLRo_IHoawIGJ-63" value="" style="endArrow=none;html=1;rounded=0;fontFamily=Times New Roman;fontSize=13;" edge="1" parent="1">
          <mxGeometry width="50" height="50" relative="1" as="geometry">
            <mxPoint x="390" y="-323.5" as="sourcePoint" />
            <mxPoint x="410" y="-323.5" as="targetPoint" />
          </mxGeometry>
        </mxCell>
        <mxCell id="EjGpoYKBLRo_IHoawIGJ-64" value="ACERCA DE..." style="text;html=1;align=left;verticalAlign=middle;resizable=0;points=[];autosize=1;strokeColor=none;fillColor=none;fontSize=13;fontFamily=Times New Roman;" vertex="1" parent="1">
          <mxGeometry x="420" y="-310" width="110" height="30" as="geometry" />
        </mxCell>
        <mxCell id="EjGpoYKBLRo_IHoawIGJ-65" value="HEADER" style="text;html=1;align=left;verticalAlign=middle;resizable=0;points=[];autosize=1;strokeColor=none;fillColor=none;fontSize=13;fontFamily=Times New Roman;" vertex="1" parent="1">
          <mxGeometry x="420" y="-340" width="80" height="30" as="geometry" />
        </mxCell>
        <mxCell id="EjGpoYKBLRo_IHoawIGJ-66" value="" style="endArrow=none;html=1;rounded=0;fontFamily=Times New Roman;fontSize=13;" edge="1" parent="1">
          <mxGeometry width="50" height="50" relative="1" as="geometry">
            <mxPoint x="390" y="-127.5" as="sourcePoint" />
            <mxPoint x="390" y="-247.5" as="targetPoint" />
          </mxGeometry>
        </mxCell>
        <mxCell id="EjGpoYKBLRo_IHoawIGJ-67" value="" style="endArrow=none;html=1;rounded=0;fontFamily=Times New Roman;fontSize=13;" edge="1" parent="1">
          <mxGeometry width="50" height="50" relative="1" as="geometry">
            <mxPoint x="390" y="-217.5" as="sourcePoint" />
            <mxPoint x="410" y="-217.5" as="targetPoint" />
          </mxGeometry>
        </mxCell>
        <mxCell id="EjGpoYKBLRo_IHoawIGJ-68" value="" style="endArrow=none;html=1;rounded=0;fontFamily=Times New Roman;fontSize=13;" edge="1" parent="1">
          <mxGeometry width="50" height="50" relative="1" as="geometry">
            <mxPoint x="390" y="-187.5" as="sourcePoint" />
            <mxPoint x="410" y="-187.5" as="targetPoint" />
          </mxGeometry>
        </mxCell>
        <mxCell id="EjGpoYKBLRo_IHoawIGJ-69" value="" style="endArrow=none;html=1;rounded=0;fontFamily=Times New Roman;fontSize=13;" edge="1" parent="1">
          <mxGeometry width="50" height="50" relative="1" as="geometry">
            <mxPoint x="390" y="-157.5" as="sourcePoint" />
            <mxPoint x="410" y="-157.5" as="targetPoint" />
          </mxGeometry>
        </mxCell>
        <mxCell id="EjGpoYKBLRo_IHoawIGJ-70" value="" style="endArrow=none;html=1;rounded=0;fontFamily=Times New Roman;fontSize=13;" edge="1" parent="1">
          <mxGeometry width="50" height="50" relative="1" as="geometry">
            <mxPoint x="390" y="-127.5" as="sourcePoint" />
            <mxPoint x="410" y="-127.5" as="targetPoint" />
          </mxGeometry>
        </mxCell>
        <mxCell id="EjGpoYKBLRo_IHoawIGJ-71" value="EXPERIENCIA" style="text;html=1;align=left;verticalAlign=middle;resizable=0;points=[];autosize=1;strokeColor=none;fillColor=none;fontSize=13;fontFamily=Times New Roman;" vertex="1" parent="1">
          <mxGeometry x="420" y="-232.5" width="110" height="30" as="geometry" />
        </mxCell>
        <mxCell id="EjGpoYKBLRo_IHoawIGJ-72" value="EDUCACIÃ“N" style="text;html=1;align=left;verticalAlign=middle;resizable=0;points=[];autosize=1;strokeColor=none;fillColor=none;fontSize=13;fontFamily=Times New Roman;" vertex="1" parent="1">
          <mxGeometry x="420" y="-202.5" width="100" height="30" as="geometry" />
        </mxCell>
        <mxCell id="EjGpoYKBLRo_IHoawIGJ-73" value="HARD &amp;amp; SOFT SKILLS" style="text;html=1;align=left;verticalAlign=middle;resizable=0;points=[];autosize=1;strokeColor=none;fillColor=none;fontSize=13;fontFamily=Times New Roman;" vertex="1" parent="1">
          <mxGeometry x="420" y="-172.5" width="160" height="30" as="geometry" />
        </mxCell>
        <mxCell id="EjGpoYKBLRo_IHoawIGJ-74" value="PROYECTOS" style="text;html=1;align=left;verticalAlign=middle;resizable=0;points=[];autosize=1;strokeColor=none;fillColor=none;fontSize=13;fontFamily=Times New Roman;" vertex="1" parent="1">
          <mxGeometry x="420" y="-142.5" width="100" height="30" as="geometry" />
        </mxCell>
        <mxCell id="EjGpoYKBLRo_IHoawIGJ-75" value="&lt;b&gt;DB SERVER&lt;/b&gt;" style="rounded=0;whiteSpace=wrap;html=1;labelBackgroundColor=#FFCCE6;sketch=0;fontFamily=Times New Roman;fontSize=15;fillColor=#FFCCE6;gradientColor=none;" vertex="1" parent="1">
          <mxGeometry x="710" y="-307.5" width="150" height="30" as="geometry" />
        </mxCell>
        <mxCell id="EjGpoYKBLRo_IHoawIGJ-76" value="" style="endArrow=none;html=1;rounded=0;fontFamily=Times New Roman;fontSize=13;" edge="1" parent="1">
          <mxGeometry width="50" height="50" relative="1" as="geometry">
            <mxPoint x="730" y="-247.5" as="sourcePoint" />
            <mxPoint x="710" y="-277.5" as="targetPoint" />
            <Array as="points">
              <mxPoint x="710" y="-247.5" />
            </Array>
          </mxGeometry>
        </mxCell>
        <mxCell id="EjGpoYKBLRo_IHoawIGJ-77" value="MySQL" style="text;html=1;align=center;verticalAlign=middle;resizable=0;points=[];autosize=1;strokeColor=none;fillColor=none;fontSize=13;fontFamily=Times New Roman;" vertex="1" parent="1">
          <mxGeometry x="730" y="-262.5" width="70" height="30" as="geometry" />
        </mxCell>
        <mxCell id="EjGpoYKBLRo_IHoawIGJ-80" value="" style="edgeStyle=elbowEdgeStyle;elbow=horizontal;endArrow=classic;html=1;curved=0;rounded=0;endSize=8;startSize=8;fontFamily=Times New Roman;fontSize=13;" edge="1" parent="1">
          <mxGeometry width="50" height="50" relative="1" as="geometry">
            <mxPoint x="230" y="-340" as="sourcePoint" />
            <mxPoint x="360" y="-440" as="targetPoint" />
            <Array as="points">
              <mxPoint x="330" y="-380" />
            </Array>
          </mxGeometry>
        </mxCell>
        <mxCell id="EjGpoYKBLRo_IHoawIGJ-81" value="" style="shape=curlyBracket;whiteSpace=wrap;html=1;rounded=1;flipH=1;labelPosition=right;verticalLabelPosition=middle;align=left;verticalAlign=middle;labelBackgroundColor=#FFCCE6;sketch=0;fontFamily=Times New Roman;fontSize=13;fillColor=#FFCCE6;gradientColor=none;" vertex="1" parent="1">
          <mxGeometry x="235" y="-325" width="20" height="60" as="geometry" />
        </mxCell>
        <mxCell id="EjGpoYKBLRo_IHoawIGJ-82" value="" style="edgeStyle=elbowEdgeStyle;elbow=horizontal;endArrow=classic;html=1;curved=0;rounded=0;endSize=8;startSize=8;fontFamily=Times New Roman;fontSize=13;" edge="1" parent="1">
          <mxGeometry width="50" height="50" relative="1" as="geometry">
            <mxPoint x="270" y="-300" as="sourcePoint" />
            <mxPoint x="380" y="-370" as="targetPoint" />
            <Array as="points">
              <mxPoint x="350" y="-320" />
            </Array>
          </mxGeometry>
        </mxCell>
        <mxCell id="EjGpoYKBLRo_IHoawIGJ-83" value="" style="shape=curlyBracket;whiteSpace=wrap;html=1;rounded=1;flipH=1;labelPosition=right;verticalLabelPosition=middle;align=left;verticalAlign=middle;labelBackgroundColor=#FFCCE6;sketch=0;fontFamily=Times New Roman;fontSize=13;fillColor=#FFCCE6;gradientColor=none;" vertex="1" parent="1">
          <mxGeometry x="280" y="-260" width="20" height="110" as="geometry" />
        </mxCell>
        <mxCell id="EjGpoYKBLRo_IHoawIGJ-84" value="" style="edgeStyle=segmentEdgeStyle;endArrow=classic;html=1;curved=0;rounded=0;endSize=8;startSize=8;fontFamily=Times New Roman;fontSize=13;" edge="1" parent="1">
          <mxGeometry width="50" height="50" relative="1" as="geometry">
            <mxPoint x="320" y="-205" as="sourcePoint" />
            <mxPoint x="370" y="-255" as="targetPoint" />
            <Array as="points">
              <mxPoint x="330" y="-205" />
              <mxPoint x="330" y="-255" />
            </Array>
          </mxGeometry>
        </mxCell>
        <mxCell id="EjGpoYKBLRo_IHoawIGJ-86" value="" style="endArrow=none;html=1;rounded=0;fontFamily=Times New Roman;fontSize=13;" edge="1" parent="1">
          <mxGeometry width="50" height="50" relative="1" as="geometry">
            <mxPoint x="570" y="-401" as="sourcePoint" />
            <mxPoint x="640" y="-401" as="targetPoint" />
          </mxGeometry>
        </mxCell>
        <mxCell id="EjGpoYKBLRo_IHoawIGJ-87" value="" style="endArrow=none;html=1;rounded=0;fontFamily=Times New Roman;fontSize=13;" edge="1" parent="1">
          <mxGeometry width="50" height="50" relative="1" as="geometry">
            <mxPoint x="640" y="-130" as="sourcePoint" />
            <mxPoint x="640" y="-400" as="targetPoint" />
          </mxGeometry>
        </mxCell>
        <mxCell id="EjGpoYKBLRo_IHoawIGJ-88" value="" style="endArrow=none;html=1;rounded=0;fontFamily=Times New Roman;fontSize=13;" edge="1" parent="1">
          <mxGeometry width="50" height="50" relative="1" as="geometry">
            <mxPoint x="570" y="-325" as="sourcePoint" />
            <mxPoint x="640" y="-325" as="targetPoint" />
          </mxGeometry>
        </mxCell>
        <mxCell id="EjGpoYKBLRo_IHoawIGJ-89" value="" style="endArrow=none;html=1;rounded=0;fontFamily=Times New Roman;fontSize=13;" edge="1" parent="1">
          <mxGeometry width="50" height="50" relative="1" as="geometry">
            <mxPoint x="570" y="-295" as="sourcePoint" />
            <mxPoint x="640" y="-295" as="targetPoint" />
          </mxGeometry>
        </mxCell>
        <mxCell id="EjGpoYKBLRo_IHoawIGJ-90" value="" style="endArrow=none;html=1;rounded=0;fontFamily=Times New Roman;fontSize=13;" edge="1" parent="1">
          <mxGeometry width="50" height="50" relative="1" as="geometry">
            <mxPoint x="570" y="-188" as="sourcePoint" />
            <mxPoint x="640" y="-188" as="targetPoint" />
          </mxGeometry>
        </mxCell>
        <mxCell id="EjGpoYKBLRo_IHoawIGJ-91" value="" style="endArrow=none;html=1;rounded=0;fontFamily=Times New Roman;fontSize=13;" edge="1" parent="1">
          <mxGeometry width="50" height="50" relative="1" as="geometry">
            <mxPoint x="570" y="-218" as="sourcePoint" />
            <mxPoint x="640" y="-218" as="targetPoint" />
          </mxGeometry>
        </mxCell>
        <mxCell id="EjGpoYKBLRo_IHoawIGJ-92" value="" style="endArrow=none;html=1;rounded=0;fontFamily=Times New Roman;fontSize=13;" edge="1" parent="1">
          <mxGeometry width="50" height="50" relative="1" as="geometry">
            <mxPoint x="570" y="-158" as="sourcePoint" />
            <mxPoint x="640" y="-158" as="targetPoint" />
          </mxGeometry>
        </mxCell>
        <mxCell id="EjGpoYKBLRo_IHoawIGJ-93" value="" style="endArrow=none;html=1;rounded=0;fontFamily=Times New Roman;fontSize=13;" edge="1" parent="1">
          <mxGeometry width="50" height="50" relative="1" as="geometry">
            <mxPoint x="570" y="-128" as="sourcePoint" />
            <mxPoint x="640" y="-128" as="targetPoint" />
          </mxGeometry>
        </mxCell>
        <mxCell id="EjGpoYKBLRo_IHoawIGJ-94" value="" style="endArrow=classic;html=1;rounded=0;fontFamily=Times New Roman;fontSize=13;" edge="1" parent="1">
          <mxGeometry width="50" height="50" relative="1" as="geometry">
            <mxPoint x="640" y="-295" as="sourcePoint" />
            <mxPoint x="700" y="-295" as="targetPoint" />
          </mxGeometry>
        </mxCell>
        <mxCell id="EjGpoYKBLRo_IHoawIGJ-95" value="Cloud" style="ellipse;shape=cloud;whiteSpace=wrap;html=1;align=center;rounded=0;labelBackgroundColor=#FFCCE6;sketch=0;fontFamily=Times New Roman;fontSize=13;fillColor=#FFCCE6;gradientColor=none;" vertex="1" parent="1">
          <mxGeometry x="250" y="-425" width="70" height="40" as="geometry" />
        </mxCell>
        <mxCell id="EjGpoYKBLRo_IHoawIGJ-96" value="Cloud" style="ellipse;shape=cloud;whiteSpace=wrap;html=1;align=center;rounded=0;labelBackgroundColor=#FFCCE6;sketch=0;fontFamily=Times New Roman;fontSize=13;fillColor=#FFCCE6;gradientColor=none;" vertex="1" parent="1">
          <mxGeometry x="520" y="-480" width="70" height="40" as="geometry" />
        </mxCell>
        <mxCell id="EjGpoYKBLRo_IHoawIGJ-97" value="Cloud" style="ellipse;shape=cloud;whiteSpace=wrap;html=1;align=center;rounded=0;labelBackgroundColor=#FFCCE6;sketch=0;fontFamily=Times New Roman;fontSize=13;fillColor=#FFCCE6;gradientColor=none;" vertex="1" parent="1">
          <mxGeometry x="520" y="-405" width="70" height="40" as="geometry" />
        </mxCell>
        <mxCell id="EjGpoYKBLRo_IHoawIGJ-98" value="Cloud" style="ellipse;shape=cloud;whiteSpace=wrap;html=1;align=center;rounded=0;labelBackgroundColor=#FFCCE6;sketch=0;fontFamily=Times New Roman;fontSize=13;fillColor=#FFCCE6;gradientColor=none;" vertex="1" parent="1">
          <mxGeometry x="520" y="-300" width="70" height="40" as="geometry" />
        </mxCell>
      </root>
    </mxGraphModel>
  </diagram>
</mxfile>
